<?xml version="1.0" encoding="UTF-8"?>
<svg version="1.1" xmlns="http://www.w3.org/2000/svg" width="204" height="192">
<path d="M0 0 C13.62060461 10.46301589 21.80239362 23.75801283 24.609375 40.671875 C26.07192376 53.13279045 23.79998462 65.96433983 17.63671875 77.0078125 C15.73479164 82.95862738 19.72971045 89.63682551 22 95.0625 C22.7332382 96.82252805 23.46253929 98.58420255 24.1875 100.34765625 C24.51105469 101.12117432 24.83460938 101.89469238 25.16796875 102.69165039 C26.03995608 105.11085234 26.55713511 107.47002247 27 110 C23.31355073 109.37257232 20.10360095 108.33810524 16.65625 106.8984375 C15.65722656 106.49109375 14.65820312 106.08375 13.62890625 105.6640625 C11.54020647 104.80354948 9.45425505 103.93633545 7.37109375 103.0625 C6.37207031 102.65773438 5.37304688 102.25296875 4.34375 101.8359375 C3.43818359 101.46001465 2.53261719 101.0840918 1.59960938 100.69677734 C-3.33994536 99.37282081 -7.14111985 101.40102074 -11.625 103.4375 C-26.62497877 109.79000019 -41.75364478 109.17814681 -57 104 C-72.76803363 97.02011355 -83.555349 84.82948131 -89.95703125 69.0546875 C-94.75885299 54.99092494 -94.92031077 39.76693161 -89 26 C-88.53722656 24.92363281 -88.07445312 23.84726563 -87.59765625 22.73828125 C-80.3959774 7.8595071 -68.4281954 -1.89468365 -53.1875 -7.875 C-35.36631404 -13.88245311 -15.41467313 -10.38085389 0 0 Z M-75 17 C-84.17808007 29.4486654 -86.59563623 42.86329079 -85 58 C-84.12560945 62.27375917 -82.83688392 66.05009928 -81 70 C-80.62617187 70.80695313 -80.25234375 71.61390625 -79.8671875 72.4453125 C-73.61059239 84.66846188 -62.99055531 93.55821219 -50 98 C-37.18917612 101.65129345 -22.28708455 101.002864 -10.375 94.5859375 C-9.694375 94.12445313 -9.01375 93.66296875 -8.3125 93.1875 C-5 91 -5 91 -2.61328125 91.23046875 C0.96308219 92.28359819 4.28830527 93.75624396 7.6953125 95.2578125 C10.11884213 96.28916702 10.11884213 96.28916702 13 95 C12.62746094 94.03578125 12.25492187 93.0715625 11.87109375 92.078125 C11.39265834 90.80229725 10.91482521 89.52624353 10.4375 88.25 C10.0672168 87.29867187 10.0672168 87.29867187 9.68945312 86.328125 C7.51139173 80.43815616 7.51139173 80.43815616 9 77 C9.59202438 75.75461539 10.21897143 74.52539003 10.875 73.3125 C18.23368555 58.94299403 18.34730504 45.08869587 13.64599609 29.84765625 C12.10404059 25.4374071 9.78263919 21.72136084 7 18 C6.47535156 17.29488281 5.95070313 16.58976562 5.41015625 15.86328125 C-2.80631868 5.71351811 -14.33527537 -0.7660281 -27.33789062 -2.27050781 C-46.40990923 -3.64375453 -62.47380478 2.16571506 -75 17 Z " fill="#2F2F2F" transform="translate(135,46)"/>
<path d="M0 0 C3.58552881 1.63687185 4.79315055 2.68972583 7 6 C7.38499891 7.65549531 7.72793135 9.3222433 8 11 C8.61875 10.360625 9.2375 9.72125 9.875 9.0625 C13.13098264 5.90228156 15.42140733 5.67443392 19.95703125 5.69921875 C23.08098097 6.15915016 24.81999703 7.81999703 27 10 C27.391875 9.0925 27.78375 8.185 28.1875 7.25 C30.16752388 3.69961236 31.48654519 2.02999611 35 0 C39.8757376 -0.61914128 41.97784524 -0.51107738 46.375 1.6875 C49.19441002 4.17126597 50.23579089 5.34877871 51 9 C50.91982499 13.48980038 50.49221191 15.41944237 47.5625 18.875 C43.54746451 22.20454163 41.22855115 22.4357126 36 22 C32.5625 20 32.5625 20 30 18 C29.4121875 19.36125 29.4121875 19.36125 28.8125 20.75 C26.47645341 24.93877319 24.0938497 27.17348038 19.625 28.9375 C15.80997305 29.02833397 13.33280837 27.78984153 10 26 C7.74742441 23.59207437 6.38407918 20.98109363 5 18 C4.54625 18.474375 4.0925 18.94875 3.625 19.4375 C1.19652359 21.77257348 0.13129355 21.99009105 -3.3125 22.25 C-8.29569492 21.91215628 -10.60430353 20.58178934 -13.875 16.875 C-15.50794253 12.70192465 -15.37050269 9.25779767 -14 5 C-9.65015759 -0.19859214 -6.39857917 -0.81251799 0 0 Z " fill="#1F1F1F" transform="translate(83,69)"/>
<path d="M0 0 C5.21106989 4.35041808 7.33239651 9.54900757 9 16 C8 17 8 17 4.12280273 17.11352539 C2.39305833 17.11336621 0.66330919 17.10766849 -1.06640625 17.09765625 C-1.97502914 17.0962413 -2.88365204 17.09482635 -3.81980896 17.09336853 C-6.73407221 17.08775193 -9.64825981 17.07519665 -12.5625 17.0625 C-14.53320202 17.05748714 -16.50390524 17.05292386 -18.47460938 17.04882812 C-23.31643559 17.03777711 -28.15820495 17.02050138 -33 17 C-32.05767619 9.02794058 -29.12110211 4.24665895 -23 -1 C-15.74691427 -4.46170001 -6.92757486 -4.10685345 0 0 Z " fill="#1E1E1E" transform="translate(113,104)"/>
<path d="M0 0 C5.05242052 3.55965991 10.26913912 7.6849763 11.75 13.9375 C11.77212194 15.60401985 11.77491416 17.27101956 11.75 18.9375 C-7.23879653 20.41744218 -7.23879653 20.41744218 -11.734375 17.109375 C-13.125 14.75 -13.125 14.75 -14.1875 12.265625 C-15.42933649 9.54454211 -16.64243836 8.60978606 -19.125 7 C-20.15625 6.319375 -21.1875 5.63875 -22.25 4.9375 C-22.25 4.2775 -22.25 3.6175 -22.25 2.9375 C-14.95165624 -1.46904718 -8.25489373 -2.69871526 0 0 Z " fill="#252525" transform="translate(131.25,96.0625)"/>
<path d="M0 0 C2.375 1.6875 2.375 1.6875 4.375 4.6875 C3.84390625 4.97882813 3.3128125 5.27015625 2.765625 5.5703125 C-2.99335599 8.91220293 -6.45819546 12.18708638 -8.625 18.6875 C-15.555 18.6875 -22.485 18.6875 -29.625 18.6875 C-28.41123391 7.7636052 -28.41123391 7.7636052 -22.625 2.6875 C-15.87596385 -2.5767482 -7.9959707 -2.89509284 0 0 Z " fill="#222222" transform="translate(88.625,96.3125)"/>
<path d="M0 0 C2.9375 1.25 2.9375 1.25 5 3 C5.95866248 5.83958252 6.16194822 8.51555198 6.1875 11.5 C6.20167969 12.2528125 6.21585938 13.005625 6.23046875 13.78125 C5.97064078 16.28264473 5.30219902 17.86067303 4 20 C0.56297069 22.54594764 -2.85046112 22.36399464 -7 22 C-10.04739688 20.68407862 -11.6866919 19.35508251 -13.875 16.875 C-15.50794253 12.70192465 -15.37050269 9.25779767 -14 5 C-9.65015759 -0.19859214 -6.39857917 -0.81251799 0 0 Z " fill="#181818" transform="translate(83,69)"/>
<path d="M0 0 C0.99 0.495 0.99 0.495 2 1 C2.38218767 2.65614657 2.71395102 4.32457024 3 6 C3.33 6.66 3.66 7.32 4 8 C3.91348369 9.54613014 3.75997364 11.08909387 3.5625 12.625 C3.40974609 13.85089844 3.40974609 13.85089844 3.25390625 15.1015625 C3.17011719 15.72804688 3.08632812 16.35453125 3 17 C0.25291371 12.87937057 -0.11949692 10.15723861 -0.0625 5.3125 C-0.05347656 4.31863281 -0.04445313 3.32476562 -0.03515625 2.30078125 C-0.02355469 1.54152344 -0.01195313 0.78226562 0 0 Z " fill="#A1A1A1" transform="translate(88,74)"/>
<path d="M0 0 C3.28670403 3.28670403 5 7.35868331 5 12 C3.35 11.67 1.7 11.34 0 11 C0.99 10.67 1.98 10.34 3 10 C2.2575 8.63875 2.2575 8.63875 1.5 7.25 C0 4 0 4 0 0 Z " fill="#A2A2A2" transform="translate(157,144)"/>
<path d="M0 0 C0.99 0.33 1.98 0.66 3 1 C1.37660195 2.70884005 -0.29319053 4.37446717 -2 6 C-2.66 6 -3.32 6 -4 6 C-2.84826645 3.53199953 -1.95216435 1.95216435 0 0 Z " fill="#545454" transform="translate(66,99)"/>
</svg>
